# Blender 3.5.0
# www.blender.org
mtllib octaedro.mtl
o pPlatonic3
v 0.073779 0.040739 0.033383
v 0.100609 0.040739 0.006553
v 0.073779 0.067569 0.006553
v 0.046949 0.040739 0.006553
v 0.073779 0.013909 0.006553
v 0.073779 0.040739 -0.020277
vn 0.5774 0.5774 0.5774
vn -0.5774 0.5774 0.5774
vn -0.5774 -0.5774 0.5774
vn 0.5774 -0.5774 0.5774
vn 0.5774 0.5774 -0.5774
vn -0.5774 0.5774 -0.5774
vn -0.5774 -0.5774 -0.5774
vn 0.5774 -0.5774 -0.5774
vt 0.446920 0.618591
vt 0.441343 0.618368
vt 0.831669 0.325447
vt 0.700869 0.618259
vt 0.703818 0.623393
vt 0.051532 0.324617
vt 0.577294 0.327844
vt 0.184855 0.625024
vt 0.832494 0.330138
vt 0.311422 0.322687
vt 0.186935 0.623190
vt 0.959230 0.618245
vt 0.316255 0.323062
vt 0.575557 0.324536
vt 0.831895 0.923603
vt 0.180701 0.025020
vt 0.703990 0.619949
vt 0.314033 0.325895
s 1
usemtl phong2
f 2/4/1 3/7/1 1/1/1
f 3/7/2 4/10/2 1/1/2
f 4/11/3 5/13/3 1/2/3
f 1/3/4 5/14/4 2/5/4
f 6/18/5 3/8/5 2/6/5
f 6/17/6 4/12/6 3/9/6
f 6/17/7 5/15/7 4/12/7
f 6/18/8 2/6/8 5/16/8
